<svg version="1" xmlns="http://www.w3.org/2000/svg" width="933.333" height="933.333" viewBox="0 0 700.000000 700.000000"><path d="M266.3 59.5c-14.6 4-26.9 13.7-34.2 27.1-11.8 21.7-5.7 49.8 14.3 66 30.3 24.6 74.8 9.4 84.6-29 6.7-26.2-7.5-52.7-33.5-62.6-7.6-2.8-23.3-3.6-31.2-1.5z"/><path d="M348 141.3c-12.8 4.3-20.8 10.7-28.8 23.2-10.1 15.8-12.2 19.1-13.2 20.5-1.7 2.5-6.7 10.2-25.4 39.2-11 17.2-18.5 27.8-19.5 27.9-.9 0-22.5.1-48.1.2-45.4.2-46.6.3-50.5 2.4-2.2 1.2-5.3 3.5-6.8 5.1-8.6 9-6 24.4 5.1 30.9l4.7 2.8h59c66.2 0 62.3.4 70.2-7.5 2.1-2.2 11.7-16.5 21.3-31.9 9.6-15.4 17.8-27.9 18.2-27.8.4.1 16.7 16.1 36.3 35.6l35.6 35.4-9.3 4.6c-23.7 12-55.8 28.7-61 31.8-6.7 4-13.7 11.5-16.9 18.1l-2.3 4.7-.1 83c0 49.8.3 84.6.9 87 3.2 13.4 15.4 22.7 29.8 22.7 12.1 0 22.2-6.6 27.7-18.2l2.6-5.5v-62.8c.1-53.3.3-63 1.6-64.1.8-.8 3.7-2.7 6.4-4.2 2.8-1.5 20.1-11.1 38.5-21.4 18.4-10.3 36.4-20.3 40-22.2 26.5-14.5 33.8-19.1 38.6-24.2 13.4-14.1 16.2-35.2 7.2-53.1-1.3-2.5-16.4-18.2-39.7-41.3-93.5-92.8-86-85.6-93.4-89.1-9-4.3-19.2-4.9-28.7-1.8z"/><path d="M248.5 313.8c-6 2-8.4 4.9-21 25.3-7.2 11.6-13.5 21.7-14 22.5-.9 1.4-2 1.2-8.5-1.4-8.8-3.5-16-6-19.2-6.6-1.3-.3-5.4-1.2-9.3-2.1-9.4-2.2-38.1-2.8-49-1-11.1 1.9-20.5 4.2-26 6.5-17 7.2-23.9 10.8-33.7 17.7-7.7 5.4-8.8 6.3-19.5 17.1-21.8 21.9-36.3 51.3-40.1 81.1-.9 7.3-.9 30.9 0 38.6 2.5 21.3 13.2 47 27.4 66.1C40 583.5 58.7 603 60 603c.4 0 2 1.1 3.6 2.5 3.3 2.9 16.4 11 24 14.8 9.3 4.7 24.7 9.6 37.9 12.1 12.3 2.4 31.4 2.4 46.1.2 38.3-5.8 74.9-29.1 96.9-61.7 15-22.3 23.6-49.7 23.9-76.4.1-15.1-.8-23.2-4-36.5-4.8-19.2-12.6-35.8-24.4-51.5-6.3-8.4-19.7-22.6-22-23.3-1.3-.5-1-1 14.3-25.7 12-19.2 13.1-21.5 13.5-26.5.3-4.7-.1-6.1-2.4-9.6-1.5-2.3-4-4.9-5.6-5.8-3.1-1.9-10.2-2.8-13.3-1.8zM170 383c8.7 1.8 22.6 6.2 24.2 7.8.4.4-2 4.9-5.2 10-3.3 5.1-6 9.5-6 9.8 0 .3-.9 1.7-1.9 3.2-4 5.6-40.6 64.9-43.3 70.1-3.8 7.3-3.7 12.5.2 17.9 4.2 5.8 7.4 7.6 13.4 7.7 9.6 0 12.5-2.7 24.3-22C182 477 200.5 447.2 202 445c.5-.8 5.6-9 11.3-18.2l10.4-16.8 4.4 4.3c23.4 22.4 35.9 58.8 31.6 91.7-7.3 55.1-54.4 96.2-110.2 96.2-11.8 0-14.1-.2-25-2.7-20.3-4.6-37.8-14.5-53-29.9-14.2-14.3-22.7-28.6-28-47.1-3.6-12.5-4-16-3.9-32 .1-15.7 2.1-26.1 7.6-40 13.2-33.6 43.4-59.3 78.5-67 9.7-2.1 11.5-2.2 24-2.3 6.9 0 14.7.7 20.3 1.8zM537.9 348.2c-17.1 1.5-33.1 5.9-49.5 13.9-44.6 21.5-75 64.8-80 113.9-5.4 52.7 20.4 105.5 65.8 134.6 15.5 10 33.4 16.9 53.8 20.9 7.1 1.5 38.3 1.4 46-.1 18.6-3.5 37.5-10.7 52-19.8 7.1-4.5 6.9-4.3 15.5-11.4 33.2-27.4 52.2-68.4 51.9-112.2-.3-30.3-11.4-61.8-30.3-85.8-4.2-5.2-4.3-5.3-6.6-3.8-3.6 2.4-8.8 5.5-10.4 6.3-.8.3-15.4 8.9-32.5 19.1-17.1 10.1-32.4 19.2-34.1 20.2-1.6.9-7.3 4.2-12.5 7.3l-9.5 5.7 45 .2 45 .3-18.5 10.4c-10.2 5.7-24.1 13.6-31 17.4-6.9 3.9-15 8.5-18 10.2-3 1.8-8.6 4.9-12.3 6.9-3.7 2-8.4 4.6-10.5 5.8-6.7 3.8-49.5 27.9-58.7 33-4.9 2.8-10.1 5.7-11.5 6.6-2.3 1.5-2.3 1.4.5-1.8 1.7-1.8 3.9-4.3 5-5.5 6.2-6.7 23.6-25.6 34.9-37.9 4.4-4.9 11.1-12.1 14.8-16l6.6-7.1-33.5-.5-33.5-.5 5.2-4.4c2.9-2.5 5.8-5 6.4-5.5.6-.6 4.7-4.3 9.1-8.1 4.4-3.9 8.9-7.9 10.1-9 1.1-1.1 5.2-4.7 8.9-8 3.8-3.3 7.6-6.7 8.5-7.5.9-.8 5-4.4 9-8 4.1-3.6 8.2-7.2 9-8 2-1.8 19.7-17.5 26.2-23.2 2.3-1.9 15.2-13.5 17.8-15.8.9-.8 5.2-4.7 9.5-8.5 4.4-3.9 8.9-7.8 9.9-8.7 1.9-1.7 1.7-1.9-4.5-4.7-19.9-9-45.1-13-69-10.9z"/></svg>